<?xml version="1.0" standalone="no"?>
<!DOCTYPE svg PUBLIC "-//W3C//DTD SVG 20010904//EN"
 "http://www.w3.org/TR/2001/REC-SVG-20010904/DTD/svg10.dtd">
<svg version="1.0" xmlns="http://www.w3.org/2000/svg"
 width="1280.000000pt" height="1280.000000pt" viewBox="0 0 1280.000000 1280.000000"
 preserveAspectRatio="xMidYMid meet">

<g transform="translate(0.000000,1280.000000) scale(0.100000,-0.100000)"
fill="#000000" stroke="none">
<path d="M4162 11363 l-53 -4 3 -67 3 -67 180 -6 c206 -8 287 -23 393 -76 130
-64 223 -198 256 -368 32 -161 36 -293 36 -1064 0 -830 3 -894 51 -1041 42
-127 117 -261 205 -366 47 -55 194 -200 259 -255 22 -19 42 -36 45 -39 3 -3
54 -47 114 -99 92 -78 155 -121 181 -121 3 0 5 593 5 1318 1 1328 6 1572 36
1672 59 197 204 331 414 383 91 23 178 34 384 52 117 10 183 20 188 28 11 17
10 65 -2 87 -5 10 -24 23 -41 29 -23 8 -400 10 -1318 9 -707 -1 -1310 -3
-1339 -5z"/>
<path d="M7184 10190 c-29 -11 -59 -56 -73 -105 -6 -22 -26 -66 -44 -99 -87
-155 -211 -165 -520 -39 -108 44 -532 193 -549 193 -5 0 -7 -84 -6 -186 l3
-186 59 -18 c81 -25 285 -128 381 -192 115 -76 296 -260 377 -383 155 -236
248 -492 308 -849 l27 -160 59 3 c32 1 67 4 77 7 16 5 17 61 17 993 0 774 -3
991 -12 1003 -16 20 -75 31 -104 18z"/>
<path d="M4755 9873 c-75 -55 -212 -190 -280 -278 -146 -187 -226 -359 -271
-583 -21 -105 -25 -152 -25 -296 1 -234 33 -415 110 -618 147 -386 413 -683
881 -984 287 -184 576 -351 1085 -624 433 -233 659 -363 852 -491 447 -298
791 -655 971 -1007 138 -269 201 -538 202 -852 0 -179 -10 -274 -46 -432 -14
-62 -28 -123 -31 -136 l-6 -23 286 3 c318 3 311 2 344 78 22 53 60 248 79 410
20 177 15 513 -10 655 -91 505 -314 932 -696 1330 -244 254 -495 453 -920 727
-103 67 -403 239 -740 425 -579 320 -783 449 -1052 666 -108 87 -263 239 -341
335 -155 190 -251 389 -298 622 -10 50 -12 183 -10 581 3 505 3 516 -16 521
-13 3 -38 -7 -68 -29z"/>
<path d="M4982 5959 c3 -1057 3 -1064 24 -1104 37 -70 123 -111 259 -122 200
-15 410 107 499 290 72 145 70 123 74 818 4 750 15 683 -131 767 -50 29 -132
76 -182 105 -211 124 -514 297 -529 303 -15 6 -16 -78 -14 -1057z"/>
<path d="M4690 6549 c-226 -15 -545 -99 -755 -200 -518 -247 -966 -719 -1189
-1250 -353 -843 -222 -1797 347 -2539 156 -203 433 -457 657 -602 636 -412
1441 -594 2230 -502 640 74 1227 302 1726 670 163 120 234 181 390 338 129
130 359 394 350 403 -2 2 -138 4 -303 4 -297 1 -299 1 -353 -24 -38 -17 -87
-55 -155 -122 -241 -234 -469 -398 -745 -536 -291 -145 -549 -227 -878 -279
-244 -38 -616 -44 -807 -11 -317 54 -482 105 -733 227 -514 251 -915 684
-1129 1219 -141 350 -199 776 -159 1145 59 536 221 897 550 1225 168 168 360
298 531 360 28 10 55 22 60 25 14 10 136 46 215 65 50 11 265 45 287 45 2 0 3
79 3 175 0 134 -3 175 -12 174 -7 -1 -65 -5 -128 -10z"/>
<path d="M5987 5717 c-5 -546 -8 -573 -73 -715 -49 -108 -93 -170 -174 -245
-122 -113 -272 -171 -440 -171 -143 0 -239 29 -350 105 -162 110 -254 274
-319 570 -19 82 -27 100 -56 129 l-35 34 0 -552 c0 -526 1 -552 18 -552 23 0
49 24 91 87 38 55 75 83 113 83 28 0 139 -29 253 -65 104 -34 299 -65 401 -65
397 0 787 237 945 574 62 133 83 235 84 406 0 108 -5 165 -19 225 -38 165
-107 307 -215 442 -51 63 -165 173 -202 194 -15 8 -17 -31 -22 -484z"/>
<path d="M10175 4691 c-16 -10 -38 -27 -48 -38 -9 -11 -66 -139 -126 -284 -59
-145 -127 -302 -151 -349 -169 -338 -411 -522 -755 -575 -337 -51 -1474 -81
-2180 -56 -623 22 -763 31 -819 52 -124 46 -173 114 -222 310 -22 88 -27 134
-31 297 l-6 192 -422 0 -421 0 -13 -227 c-26 -472 -46 -550 -170 -678 -104
-107 -226 -148 -505 -169 -192 -15 -196 -16 -196 -73 0 -35 20 -60 53 -68 12
-3 1299 -4 2860 -3 l2839 3 27 31 c30 33 37 56 96 334 19 91 51 235 70 320 84
377 126 566 161 724 l37 169 -18 54 c-10 29 -21 53 -24 53 -3 0 -19 -8 -36
-19z"/>
</g>
</svg>
