<svg id="svg" version="1.1" xmlns="http://www.w3.org/2000/svg" xmlns:xlink="http://www.w3.org/1999/xlink" width="400" height="400" viewBox="0, 0, 400,400"><g id="svgg"><path id="path0" d="M134.483 44.921 L 128.809 45.014 128.687 46.648 C 128.476 49.449,128.106 49.265,134.322 49.464 C 146.349 49.850,151.189 52.721,154.032 61.159 C 155.406 65.239,155.660 70.556,155.775 97.656 C 155.889 124.545,155.932 125.384,157.445 129.712 C 159.880 136.678,164.278 142.225,173.552 150.028 C 174.044 150.442,174.888 151.176,175.427 151.660 C 178.464 154.383,181.537 156.562,182.339 156.563 C 182.407 156.563,182.517 136.348,182.583 111.641 C 182.719 61.688,182.581 64.814,184.846 60.046 C 187.001 55.508,191.359 52.320,197.260 50.967 C 200.345 50.259,201.297 50.137,208.581 49.520 C 214.565 49.014,214.675 48.973,214.683 47.278 C 214.689 46.023,213.790 45.140,212.247 44.885 C 211.137 44.701,146.101 44.732,134.483 44.921 M224.177 81.850 C 223.513 82.254,223.020 82.935,222.650 83.958 C 219.419 92.883,215.827 93.878,204.244 89.057 C 202.608 88.376,198.840 86.990,195.869 85.976 C 192.899 84.962,189.836 83.907,189.063 83.633 C 188.289 83.359,187.548 83.132,187.415 83.130 C 187.282 83.127,187.212 85.743,187.259 88.942 L 187.344 94.758 189.063 95.304 C 207.587 101.183,219.534 117.623,222.848 141.797 L 223.245 144.688 224.982 144.683 C 225.937 144.681,227.035 144.594,227.422 144.491 L 228.125 144.302 228.125 113.461 C 228.125 89.259,228.041 82.513,227.734 82.126 C 227.085 81.305,225.298 81.167,224.177 81.850 M148.462 91.581 C 125.530 108.193,124.473 143.553,146.250 165.603 C 151.456 170.875,155.950 174.239,166.094 180.458 C 168.844 182.143,171.586 183.833,172.188 184.213 C 174.138 185.444,183.677 190.799,188.906 193.599 C 190.109 194.244,191.727 195.124,192.500 195.555 C 193.273 195.987,196.578 197.775,199.844 199.529 C 213.819 207.035,221.064 211.497,229.219 217.619 C 230.594 218.651,231.789 219.574,231.875 219.670 C 231.961 219.765,233.086 220.746,234.375 221.849 C 254.746 239.280,262.567 260.880,257.172 284.809 C 256.665 287.057,256.250 288.934,256.250 288.980 C 256.250 289.025,260.096 289.063,264.798 289.063 C 276.123 289.063,275.663 289.388,277.318 280.212 C 283.897 243.744,267.841 214.233,227.813 189.221 C 227.211 188.845,226.297 188.269,225.781 187.941 C 225.266 187.612,224.703 187.273,224.531 187.188 C 224.359 187.102,222.531 186.038,220.469 184.825 C 215.679 182.007,211.417 179.590,206.650 176.991 C 174.735 159.587,162.373 149.721,155.261 135.980 C 151.373 128.469,150.951 125.375,151.171 106.016 L 151.345 90.625 150.563 90.625 C 150.133 90.625,149.187 91.055,148.462 91.581 M155.709 213.797 L 155.781 247.031 156.563 248.428 C 157.505 250.109,159.042 251.048,161.937 251.709 C 169.414 253.418,177.348 249.430,180.456 242.402 C 182.320 238.188,182.278 238.712,182.417 217.454 C 182.565 194.893,182.733 196.280,179.620 194.361 C 175.429 191.777,156.888 181.043,156.083 180.734 C 155.697 180.586,155.646 185.096,155.709 213.797 M146.875 195.320 C 116.310 197.372,88.108 222.669,81.561 253.906 C 72.515 297.069,98.890 338.199,143.750 350.887 C 186.885 363.087,232.220 349.038,260.562 314.688 L 264.042 310.469 258.974 310.313 C 244.619 309.870,243.525 310.128,238.281 315.191 C 212.234 340.343,171.926 348.674,142.591 334.969 C 141.524 334.470,140.596 334.063,140.528 334.063 C 140.134 334.063,133.481 330.248,131.183 328.704 C 107.833 313.016,95.563 284.295,99.962 255.625 C 102.115 241.592,108.039 229.324,116.561 221.250 C 125.875 212.426,134.974 208.115,148.203 206.257 L 150.938 205.873 150.938 200.436 C 150.938 196.269,150.846 195.012,150.547 195.050 C 150.332 195.077,148.680 195.199,146.875 195.320 M187.180 218.656 C 187.170 236.387,186.835 239.783,184.664 244.161 C 177.267 259.080,158.525 261.304,149.620 248.319 C 147.272 244.896,146.213 242.170,144.662 235.553 C 144.065 233.006,143.781 232.350,142.912 231.508 L 141.875 230.502 141.875 247.773 L 141.875 265.043 142.578 264.944 C 143.021 264.881,143.883 264.041,144.911 262.671 C 147.582 259.109,147.778 259.085,155.669 261.366 C 169.365 265.326,178.880 264.202,188.819 257.453 C 205.031 246.444,205.776 222.109,190.324 208.336 C 186.835 205.226,187.189 204.066,187.180 218.656 M317.505 253.867 C 316.131 254.954,315.390 256.371,312.938 262.600 C 306.034 280.136,301.196 286.463,291.719 290.356 C 287.046 292.275,286.118 292.405,267.031 293.806 C 252.091 294.903,194.805 294.006,190.697 292.611 C 185.045 290.693,182.507 284.343,182.502 272.109 L 182.500 267.500 169.273 267.500 L 156.045 267.500 155.656 274.609 C 154.958 287.361,154.488 290.071,152.415 293.306 C 149.006 298.627,144.601 300.425,133.030 301.218 C 128.487 301.530,128.751 301.422,128.533 303.049 C 128.390 304.114,128.481 304.364,129.226 304.950 L 130.084 305.625 218.651 305.625 C 315.046 305.625,308.294 305.751,309.488 303.928 C 309.774 303.493,310.710 299.935,311.570 296.021 C 312.430 292.108,313.495 287.289,313.937 285.313 C 314.379 283.336,315.142 279.891,315.634 277.656 C 316.125 275.422,316.832 272.258,317.204 270.625 C 317.577 268.992,318.131 266.461,318.436 265.000 C 318.741 263.539,319.300 260.886,319.680 259.104 C 320.339 256.008,320.347 255.804,319.848 254.498 C 319.154 252.682,319.041 252.652,317.505 253.867 " stroke="none" fill="#6b4589" fill-rule="evenodd"></path><path id="path1" d="M0.000 200.000 L 0.000 400.000 200.000 400.000 L 400.000 400.000 400.000 200.000 L 400.000 0.000 200.000 0.000 L 0.000 0.000 0.000 200.000 M213.684 45.024 C 215.765 45.749,215.308 49.173,213.114 49.298 C 202.557 49.900,194.972 51.326,191.853 53.295 C 191.185 53.717,190.520 54.062,190.376 54.063 C 189.924 54.063,187.043 56.970,186.042 58.438 C 182.724 63.299,182.728 63.238,182.588 114.001 L 182.469 156.907 181.782 156.696 C 180.418 156.277,179.661 155.719,174.945 151.659 C 162.639 141.064,159.570 137.120,156.807 128.352 L 155.800 125.156 155.593 97.500 C 155.479 82.289,155.295 69.352,155.185 68.750 C 155.074 68.148,154.833 66.602,154.650 65.313 C 154.333 63.090,153.608 60.508,152.749 58.544 C 152.303 57.524,150.022 54.376,149.728 54.374 C 149.620 54.373,149.109 53.986,148.594 53.514 C 145.690 50.857,142.306 49.949,134.609 49.763 L 128.438 49.615 128.438 47.333 C 128.438 45.801,128.566 45.000,128.828 44.894 C 129.666 44.557,212.706 44.683,213.684 45.024 M228.199 82.857 C 228.332 83.655,228.405 97.903,228.361 114.521 L 228.281 144.734 225.725 144.884 L 223.168 145.033 222.974 143.532 C 222.220 137.708,219.924 128.420,218.279 124.531 C 218.061 124.016,217.790 123.288,217.678 122.915 C 217.127 121.084,213.454 114.373,211.978 112.500 C 207.301 106.564,205.614 104.894,201.094 101.731 C 197.966 99.543,194.013 97.472,190.000 95.919 C 188.539 95.354,187.302 94.863,187.252 94.828 C 187.022 94.669,187.185 82.969,187.418 82.892 C 187.562 82.844,190.347 83.732,193.606 84.866 C 196.865 86.000,199.672 86.964,199.844 87.010 C 200.016 87.055,200.578 87.261,201.094 87.469 C 201.609 87.677,203.648 88.479,205.625 89.251 C 207.602 90.023,209.570 90.802,210.000 90.982 C 211.031 91.414,214.950 91.700,216.316 91.444 C 218.582 91.019,220.591 88.557,222.217 84.212 C 223.167 81.674,223.793 81.204,226.082 81.315 L 227.957 81.406 228.199 82.857 M151.398 107.107 C 151.452 125.384,151.500 125.938,153.474 131.250 C 154.225 133.273,157.360 139.572,157.828 140.000 C 157.922 140.086,158.335 140.648,158.746 141.250 C 160.563 143.911,163.940 147.712,167.227 150.793 C 175.237 158.303,185.474 165.071,204.531 175.458 C 205.734 176.114,207.842 177.285,209.215 178.061 C 210.587 178.837,212.345 179.820,213.121 180.246 C 216.288 181.987,216.745 182.241,217.349 182.597 C 217.696 182.801,219.524 183.871,221.412 184.974 C 223.299 186.076,224.914 187.071,225.000 187.184 C 225.086 187.297,225.402 187.480,225.703 187.591 C 226.811 188.000,236.867 194.747,239.688 196.974 C 239.946 197.177,240.564 197.607,241.063 197.929 C 254.497 206.599,270.691 226.933,274.816 240.313 C 275.107 241.258,275.466 242.255,275.613 242.527 C 276.222 243.661,277.693 250.119,278.524 255.313 C 278.953 257.994,278.936 272.101,278.500 274.688 C 278.311 275.805,277.953 277.932,277.702 279.414 C 276.663 285.571,276.238 286.951,274.991 288.203 L 273.824 289.375 264.691 289.375 C 256.117 289.375,255.572 289.342,255.780 288.828 C 257.579 284.394,258.906 275.269,258.665 268.992 C 257.861 248.037,246.982 230.582,225.000 214.977 C 221.750 212.670,221.282 212.355,217.031 209.625 C 214.855 208.227,210.368 205.625,210.134 205.625 C 210.066 205.625,209.130 205.089,208.052 204.433 C 206.975 203.777,204.898 202.601,203.438 201.819 C 201.977 201.037,199.938 199.937,198.906 199.375 C 195.480 197.508,193.630 196.504,189.650 194.355 C 183.471 191.019,174.953 186.232,173.756 185.423 C 173.157 185.018,172.569 184.688,172.450 184.688 C 172.021 184.687,157.987 175.899,157.500 175.326 C 157.414 175.225,156.922 174.880,156.406 174.561 C 143.061 166.290,133.148 151.171,130.898 135.655 C 129.849 128.418,130.239 120.916,131.981 114.844 C 134.210 107.070,137.995 100.881,144.188 94.882 C 147.766 91.414,150.411 89.661,151.221 90.219 C 151.291 90.268,151.371 97.867,151.398 107.107 M159.712 182.388 C 159.983 182.621,160.313 182.813,160.445 182.813 C 160.577 182.813,161.058 183.077,161.514 183.400 C 161.970 183.723,163.469 184.615,164.844 185.383 C 166.908 186.535,169.743 188.173,177.435 192.656 C 183.097 195.957,182.564 193.248,182.440 218.125 L 182.338 238.594 181.521 240.700 C 177.933 249.955,168.092 254.731,159.592 251.344 C 155.358 249.658,155.629 252.250,155.627 213.370 L 155.625 180.021 157.422 180.992 C 158.410 181.526,159.441 182.154,159.712 182.388 M151.250 200.553 L 151.250 206.106 146.484 206.768 C 137.536 208.011,127.402 212.303,121.498 217.351 C 121.101 217.691,119.945 218.672,118.929 219.531 C 90.395 243.678,93.515 297.120,125.002 323.550 C 129.121 327.007,130.974 328.306,136.735 331.772 C 146.201 337.469,160.998 341.236,173.944 341.247 C 184.757 341.255,199.554 338.363,208.281 334.533 C 208.797 334.307,210.133 333.742,211.250 333.277 C 219.430 329.873,229.678 322.925,237.325 315.597 C 243.313 309.860,242.310 310.185,254.453 310.054 C 260.032 309.994,264.375 310.067,264.375 310.222 C 264.375 310.993,256.253 320.362,251.882 324.633 C 242.679 333.626,229.031 342.497,217.656 346.880 C 216.625 347.277,215.641 347.704,215.469 347.828 C 214.977 348.184,205.753 351.091,202.813 351.817 C 163.132 361.614,122.303 350.463,99.144 323.503 C 97.102 321.126,92.813 315.477,92.813 315.165 C 92.813 315.051,92.480 314.511,92.074 313.964 C 90.569 311.935,87.250 305.472,85.363 300.893 C 78.615 284.524,77.781 263.971,83.169 246.875 C 84.480 242.716,88.401 233.951,90.018 231.563 C 90.309 231.133,91.478 229.368,92.614 227.641 C 105.209 208.504,127.899 195.306,148.672 195.034 L 151.250 195.000 151.250 200.553 M187.500 205.604 C 187.500 205.764,187.782 205.985,188.128 206.095 C 189.042 206.385,193.758 211.179,195.399 213.487 C 204.630 226.465,203.811 243.278,193.438 253.756 C 183.127 264.171,169.837 266.454,152.656 260.763 C 148.416 259.358,146.301 260.093,144.780 263.499 C 144.287 264.603,143.135 265.338,142.259 265.109 L 141.563 264.927 141.563 247.464 C 141.563 237.859,141.668 230.000,141.797 230.001 C 142.439 230.002,144.354 232.550,144.537 233.648 C 146.157 243.352,150.158 250.494,155.839 253.824 C 163.659 258.407,174.435 256.761,180.273 250.094 C 180.996 249.269,181.833 248.313,182.135 247.969 C 183.099 246.869,185.013 242.885,185.853 240.230 L 186.667 237.656 186.791 221.484 C 186.866 211.745,187.032 205.313,187.208 205.313 C 187.368 205.313,187.500 205.444,187.500 205.604 M319.870 253.750 C 320.441 255.330,320.395 257.210,319.712 260.274 C 319.381 261.756,318.670 265.008,318.130 267.500 C 316.655 274.315,316.663 274.280,315.825 277.969 C 313.601 287.769,311.597 296.942,311.066 299.757 C 310.404 303.260,309.668 304.790,308.341 305.420 C 307.319 305.904,300.857 305.936,218.280 305.862 L 129.320 305.781 128.700 305.016 C 128.100 304.275,128.017 302.496,128.543 301.645 C 128.652 301.469,130.114 301.230,131.792 301.114 C 151.398 299.755,155.625 294.619,155.625 272.156 C 155.625 271.018,155.714 269.435,155.824 268.637 L 156.022 267.188 169.261 267.188 L 182.500 267.188 182.500 271.386 C 182.500 282.721,184.964 289.529,189.927 291.905 C 195.356 294.505,266.485 294.815,283.906 292.315 C 286.683 291.917,291.362 290.378,293.736 289.083 C 296.868 287.374,297.301 287.100,298.378 286.143 C 303.553 281.547,305.979 278.116,309.056 271.046 C 309.942 269.010,311.088 266.374,311.603 265.188 C 312.117 264.003,312.749 262.414,313.006 261.658 C 313.262 260.901,313.957 259.234,314.549 257.952 C 315.141 256.671,315.625 255.493,315.625 255.335 C 315.625 254.863,318.559 252.488,319.035 252.575 C 319.277 252.620,319.653 253.148,319.870 253.750 " stroke="none" fill="#f4f4f4" fill-rule="evenodd"></path><path id="path2" d="M131.484 49.605 C 132.387 49.669,133.863 49.669,134.766 49.605 C 135.668 49.542,134.930 49.491,133.125 49.491 C 131.320 49.491,130.582 49.542,131.484 49.605 M151.355 105.313 C 151.355 106.602,151.410 107.129,151.478 106.484 C 151.545 105.840,151.545 104.785,151.478 104.141 C 151.410 103.496,151.355 104.023,151.355 105.313 M151.045 117.656 C 151.046 119.031,151.101 119.555,151.167 118.820 C 151.233 118.085,151.232 116.960,151.165 116.320 C 151.098 115.680,151.043 116.281,151.045 117.656 M168.438 145.723 C 168.438 145.777,168.895 146.234,169.453 146.738 L 170.469 147.656 169.551 146.641 C 168.695 145.694,168.438 145.481,168.438 145.723 M166.875 150.723 C 166.875 150.777,167.332 151.234,167.891 151.738 L 168.906 152.656 167.988 151.641 C 167.133 150.694,166.875 150.481,166.875 150.723 M146.719 166.563 C 147.739 167.594,148.644 168.438,148.730 168.438 C 148.816 168.438,148.052 167.594,147.031 166.563 C 146.011 165.531,145.106 164.688,145.020 164.688 C 144.934 164.688,145.698 165.531,146.719 166.563 M151.008 200.368 C 150.945 205.331,150.882 205.906,150.391 206.035 C 149.878 206.169,149.879 206.180,150.400 206.214 C 151.229 206.268,151.274 205.911,151.172 200.145 L 151.078 194.844 151.008 200.368 M102.171 216.172 L 101.094 217.344 102.266 216.267 C 103.356 215.264,103.581 215.000,103.343 215.000 C 103.290 215.000,102.763 215.527,102.171 216.172 M117.637 220.391 L 116.719 221.406 117.734 220.488 C 118.681 219.633,118.894 219.375,118.652 219.375 C 118.598 219.375,118.141 219.832,117.637 220.391 M193.108 253.984 L 192.031 255.156 193.203 254.079 C 194.294 253.077,194.519 252.813,194.280 252.813 C 194.228 252.813,193.700 253.340,193.108 253.984 M99.172 267.500 C 99.172 268.961,99.226 269.559,99.291 268.828 C 99.357 268.098,99.357 266.902,99.291 266.172 C 99.226 265.441,99.172 266.039,99.172 267.500 M263.828 289.292 C 264.645 289.357,265.980 289.357,266.797 289.292 C 267.613 289.228,266.945 289.175,265.313 289.175 C 263.680 289.175,263.012 289.228,263.828 289.292 M213.516 293.965 C 213.816 294.044,214.309 294.044,214.609 293.965 C 214.910 293.887,214.664 293.823,214.063 293.823 C 213.461 293.823,213.215 293.887,213.516 293.965 M260.391 293.965 C 260.691 294.044,261.184 294.044,261.484 293.965 C 261.785 293.887,261.539 293.823,260.938 293.823 C 260.336 293.823,260.090 293.887,260.391 293.965 M224.927 294.289 C 225.489 294.359,226.333 294.357,226.802 294.286 C 227.272 294.214,226.813 294.158,225.781 294.159 C 224.750 294.161,224.366 294.219,224.927 294.289 M250.078 294.286 C 250.551 294.358,251.324 294.358,251.797 294.286 C 252.270 294.215,251.883 294.156,250.938 294.156 C 249.992 294.156,249.605 294.215,250.078 294.286 M176.041 305.859 C 200.074 305.904,239.309 305.904,263.228 305.859 C 287.148 305.815,267.484 305.779,219.531 305.779 C 171.578 305.779,152.007 305.815,176.041 305.859 M261.797 310.221 C 262.184 310.295,262.816 310.295,263.203 310.221 C 263.590 310.146,263.273 310.085,262.500 310.085 C 261.727 310.085,261.410 310.146,261.797 310.221 M100.313 324.785 C 100.313 324.839,100.770 325.296,101.328 325.801 L 102.344 326.719 101.426 325.703 C 100.570 324.756,100.313 324.544,100.313 324.785 M250.137 326.016 L 249.219 327.031 250.234 326.113 C 250.793 325.609,251.250 325.152,251.250 325.098 C 251.250 324.856,250.992 325.069,250.137 326.016 " stroke="none" fill="#bbaac7" fill-rule="evenodd"></path><path id="path3" d="M132.891 44.920 C 134.223 44.978,136.402 44.978,137.734 44.920 C 139.066 44.861,137.977 44.813,135.313 44.813 C 132.648 44.813,131.559 44.861,132.891 44.920 M128.527 46.406 C 128.529 47.266,128.590 47.580,128.662 47.105 C 128.734 46.630,128.732 45.927,128.657 45.543 C 128.583 45.158,128.525 45.547,128.527 46.406 M128.537 48.906 C 128.580 49.330,128.850 49.548,129.378 49.582 C 130.030 49.625,130.046 49.610,129.472 49.485 C 129.096 49.403,128.718 49.099,128.631 48.809 C 128.518 48.429,128.491 48.456,128.537 48.906 M155.765 100.000 C 155.765 105.586,155.807 107.871,155.859 105.078 C 155.911 102.285,155.911 97.715,155.859 94.922 C 155.807 92.129,155.765 94.414,155.765 100.000 M143.421 95.859 L 142.344 97.031 143.516 95.954 C 144.160 95.362,144.688 94.835,144.688 94.782 C 144.688 94.544,144.423 94.769,143.421 95.859 M151.010 120.938 C 151.010 121.539,151.074 121.785,151.153 121.484 C 151.232 121.184,151.232 120.691,151.153 120.391 C 151.074 120.090,151.010 120.336,151.010 120.938 M130.422 127.500 C 130.422 128.961,130.476 129.559,130.541 128.828 C 130.607 128.098,130.607 126.902,130.541 126.172 C 130.476 125.441,130.422 126.039,130.422 127.500 M166.250 143.594 C 166.833 144.195,167.380 144.688,167.466 144.688 C 167.552 144.688,167.146 144.195,166.563 143.594 C 165.979 142.992,165.432 142.500,165.346 142.500 C 165.260 142.500,165.667 142.992,166.250 143.594 M163.750 147.910 C 163.750 147.964,164.207 148.421,164.766 148.926 L 165.781 149.844 164.863 148.828 C 164.008 147.881,163.750 147.669,163.750 147.910 M149.375 168.906 C 149.958 169.508,150.505 170.000,150.591 170.000 C 150.677 170.000,150.271 169.508,149.688 168.906 C 149.104 168.305,148.557 167.813,148.471 167.813 C 148.385 167.813,148.792 168.305,149.375 168.906 M186.950 219.297 L 187.024 232.969 187.109 219.437 C 187.172 209.379,187.286 205.961,187.552 206.126 C 187.772 206.262,187.823 206.208,187.686 205.986 C 186.972 204.830,186.880 206.489,186.950 219.297 M190.313 208.223 C 190.313 208.277,190.770 208.734,191.328 209.238 L 192.344 210.156 191.426 209.141 C 190.570 208.194,190.313 207.981,190.313 208.223 M238.750 226.094 C 239.333 226.695,239.880 227.188,239.966 227.188 C 240.052 227.188,239.646 226.695,239.063 226.094 C 238.479 225.492,237.932 225.000,237.846 225.000 C 237.760 225.000,238.167 225.492,238.750 226.094 M141.708 247.813 C 141.708 257.352,141.748 261.254,141.797 256.484 C 141.845 251.715,141.845 243.910,141.797 239.141 C 141.748 234.371,141.708 238.273,141.708 247.813 M164.609 256.789 C 165.168 256.858,166.082 256.858,166.641 256.789 C 167.199 256.719,166.742 256.663,165.625 256.663 C 164.508 256.663,164.051 256.719,164.609 256.789 M99.148 263.750 C 99.148 264.523,99.209 264.840,99.283 264.453 C 99.358 264.066,99.358 263.434,99.283 263.047 C 99.209 262.660,99.148 262.977,99.148 263.750 M278.859 265.000 C 278.859 266.461,278.913 267.059,278.979 266.328 C 279.045 265.598,279.045 264.402,278.979 263.672 C 278.913 262.941,278.859 263.539,278.859 265.000 M162.734 267.422 C 166.387 267.472,172.363 267.472,176.016 267.422 C 179.668 267.372,176.680 267.331,169.375 267.331 C 162.070 267.331,159.082 267.372,162.734 267.422 M256.017 288.750 C 256.120 289.127,256.782 289.222,259.400 289.237 L 262.656 289.256 259.542 289.147 C 257.575 289.078,256.329 288.899,256.159 288.660 C 255.967 288.390,255.926 288.416,256.017 288.750 M269.305 289.292 C 270.040 289.358,271.165 289.357,271.805 289.290 C 272.445 289.223,271.844 289.168,270.469 289.170 C 269.094 289.171,268.570 289.226,269.305 289.292 M196.016 293.340 C 196.316 293.419,196.809 293.419,197.109 293.340 C 197.410 293.262,197.164 293.198,196.563 293.198 C 195.961 293.198,195.715 293.262,196.016 293.340 M203.516 293.653 C 203.816 293.732,204.309 293.732,204.609 293.653 C 204.910 293.574,204.664 293.510,204.063 293.510 C 203.461 293.510,203.215 293.574,203.516 293.653 M210.703 293.974 C 211.176 294.045,211.949 294.045,212.422 293.974 C 212.895 293.902,212.508 293.844,211.563 293.844 C 210.617 293.844,210.230 293.902,210.703 293.974 M262.578 293.974 C 263.051 294.045,263.824 294.045,264.297 293.974 C 264.770 293.902,264.383 293.844,263.438 293.844 C 262.492 293.844,262.105 293.902,262.578 293.974 M220.852 294.288 C 221.407 294.357,222.392 294.358,223.040 294.291 C 223.688 294.223,223.234 294.166,222.031 294.165 C 220.828 294.164,220.298 294.219,220.852 294.288 M253.359 294.289 C 253.918 294.358,254.832 294.358,255.391 294.289 C 255.949 294.219,255.492 294.163,254.375 294.163 C 253.258 294.163,252.801 294.219,253.359 294.289 M250.234 310.226 C 250.793 310.295,251.707 310.295,252.266 310.226 C 252.824 310.157,252.367 310.100,251.250 310.100 C 250.133 310.100,249.676 310.157,250.234 310.226 M256.484 310.230 C 257.387 310.294,258.863 310.294,259.766 310.230 C 260.668 310.167,259.930 310.116,258.125 310.116 C 256.320 310.116,255.582 310.167,256.484 310.230 M239.358 313.984 L 238.281 315.156 239.453 314.079 C 240.098 313.487,240.625 312.960,240.625 312.907 C 240.625 312.669,240.361 312.894,239.358 313.984 M234.199 318.828 L 233.281 319.844 234.297 318.926 C 234.855 318.421,235.313 317.964,235.313 317.910 C 235.313 317.669,235.055 317.881,234.199 318.828 M252.959 323.203 L 251.094 325.156 253.047 323.291 C 254.121 322.265,255.000 321.386,255.000 321.338 C 255.000 321.107,254.692 321.389,252.959 323.203 M103.281 327.813 C 103.953 328.500,104.572 329.063,104.658 329.063 C 104.744 329.063,104.265 328.500,103.594 327.813 C 102.922 327.125,102.303 326.563,102.217 326.563 C 102.131 326.563,102.610 327.125,103.281 327.813 M106.563 330.723 C 106.563 330.777,107.020 331.234,107.578 331.738 L 108.594 332.656 107.676 331.641 C 106.820 330.694,106.563 330.481,106.563 330.723 M173.047 341.471 C 173.434 341.545,174.066 341.545,174.453 341.471 C 174.840 341.396,174.523 341.335,173.750 341.335 C 172.977 341.335,172.660 341.396,173.047 341.471 M168.516 355.215 C 168.816 355.294,169.309 355.294,169.609 355.215 C 169.910 355.137,169.664 355.073,169.063 355.073 C 168.461 355.073,168.215 355.137,168.516 355.215 " stroke="none" fill="#a48cb0" fill-rule="evenodd"></path><path id="path4" d="M182.898 68.750 C 182.898 69.523,182.959 69.840,183.033 69.453 C 183.108 69.066,183.108 68.434,183.033 68.047 C 182.959 67.660,182.898 67.977,182.898 68.750 M228.125 114.125 C 228.039 131.089,228.075 144.863,228.205 144.733 C 228.334 144.603,228.405 130.723,228.361 113.889 L 228.281 83.281 228.125 114.125 M213.672 91.783 C 214.059 91.858,214.691 91.858,215.078 91.783 C 215.465 91.709,215.148 91.648,214.375 91.648 C 213.602 91.648,213.285 91.709,213.672 91.783 M151.344 101.563 C 151.344 102.508,151.402 102.895,151.474 102.422 C 151.545 101.949,151.545 101.176,151.474 100.703 C 151.402 100.230,151.344 100.617,151.344 101.563 M151.335 108.750 C 151.335 109.523,151.396 109.840,151.471 109.453 C 151.545 109.066,151.545 108.434,151.471 108.047 C 151.396 107.660,151.335 107.977,151.335 108.750 M165.313 142.910 C 165.313 142.964,165.770 143.421,166.328 143.926 L 167.344 144.844 166.426 143.828 C 165.570 142.881,165.313 142.669,165.313 142.910 M146.328 195.215 C 146.629 195.294,147.121 195.294,147.422 195.215 C 147.723 195.137,147.477 195.073,146.875 195.073 C 146.273 195.073,146.027 195.137,146.328 195.215 M190.313 207.910 C 190.313 207.964,190.770 208.421,191.328 208.926 L 192.344 209.844 191.426 208.828 C 190.570 207.881,190.313 207.669,190.313 207.910 M237.813 225.410 C 237.813 225.464,238.270 225.921,238.828 226.426 L 239.844 227.344 238.926 226.328 C 238.070 225.381,237.813 225.169,237.813 225.410 M201.641 233.906 C 201.645 234.594,201.709 234.838,201.784 234.449 C 201.858 234.061,201.855 233.498,201.777 233.199 C 201.699 232.901,201.638 233.219,201.641 233.906 M198.047 293.346 C 198.434 293.420,199.066 293.420,199.453 293.346 C 199.840 293.271,199.523 293.210,198.750 293.210 C 197.977 293.210,197.660 293.271,198.047 293.346 M271.641 293.340 C 271.941 293.419,272.434 293.419,272.734 293.340 C 273.035 293.262,272.789 293.198,272.188 293.198 C 271.586 293.198,271.340 293.262,271.641 293.340 M215.391 293.965 C 215.691 294.044,216.184 294.044,216.484 293.965 C 216.785 293.887,216.539 293.823,215.938 293.823 C 215.336 293.823,215.090 293.887,215.391 293.965 M232.891 294.296 C 235.941 294.348,240.934 294.348,243.984 294.296 C 247.035 294.245,244.539 294.203,238.438 294.203 C 232.336 294.203,229.840 294.245,232.891 294.296 M130.863 305.846 C 131.252 305.921,131.814 305.918,132.113 305.840 C 132.412 305.761,132.094 305.700,131.406 305.704 C 130.719 305.707,130.474 305.771,130.863 305.846 M238.582 314.453 L 237.031 316.094 238.672 314.543 C 239.574 313.690,240.313 312.952,240.313 312.902 C 240.313 312.669,240.023 312.929,238.582 314.453 M120.313 319.473 C 120.313 319.527,120.770 319.984,121.328 320.488 L 122.344 321.406 121.426 320.391 C 120.570 319.444,120.313 319.231,120.313 319.473 " stroke="none" fill="#ddceea" fill-rule="evenodd"></path></g></svg>